# xmcd
#
# Track frame offsets:
#	150
#	14972
#	28416
#	46131
#	60793
#	77308
#	94142
#	112283
#	124944
#	140031
#	159829
#	174901
#	192718
#	206183
#	219672
#	240693
#
# Disc length: 3431 seconds
#
# Revision: 3
# Processed by: cddbd v1.5.2PL0 Copyright (c) Steve Scherf et al.
# Submitted via: audiograbber 1.83.01
#
DISCID=ea0d6510
DTITLE=MH1028 Monster Hits - Male Classic country (MH)
DYEAR=2008
DGENRE=Karaoke
TTITLE0=Alabama - Love In The First Degree (MH)
TTITLE1=Randy Travis - On The Other Hand (MH)
TTITLE2=Garth Brooks - The Thunder Rolls (MH)
TTITLE3=Dan Seals - Bop (MH)
TTITLE4=Alabama - The Closer You Get  (MH)
TTITLE5=Alabama - Jukebox In My Mind (MH)
TTITLE6=Vince Gill - I Still Believe In You (MH)
TTITLE7=Joe Diffie - If The Devil Danced (In Empty Pockets) (MH)
TTITLE8=Alabama - Forty Hour Week (For A Livin') (MH)
TTITLE9=Restless Heart - I'll Still Be Loving You (MH)
TTITLE10=Alabama - Song Of The South (MH)
TTITLE11=Diamond Rio - Bubba Hyde (MH)
TTITLE12=Randy Travis - 1982 (MH)
TTITLE13=Sammy Kershaw - Cadillac Style (MH)
TTITLE14=Shenandoah - Sunday In The South (MH)
TTITLE15=Alabama - Roll On (Eighteen Wheeler) (MH)
EXTD=
EXTT0=
EXTT1=
EXTT2=
EXTT3=
EXTT4=
EXTT5=
EXTT6=
EXTT7=
EXTT8=
EXTT9=
EXTT10=
EXTT11=
EXTT12=
EXTT13=
EXTT14=
EXTT15=
PLAYORDER=
